<svg xmlns="http://www.w3.org/2000/svg" viewBox="0 0 512 512">
  <defs>
    <linearGradient id="bg" x1="0%" y1="0%" x2="100%" y2="100%">
      <stop offset="0%" style="stop-color:#0D47A1"/>
      <stop offset="100%" style="stop-color:#1565C0"/>
    </linearGradient>
  </defs>
  <rect x="32" y="32" width="448" height="448" rx="64" fill="url(#bg)"/>
  <circle cx="256" cy="112" r="20" fill="none" stroke="#FFFFFF" stroke-width="6"/>
  <line x1="256" y1="132" x2="256" y2="315" stroke="#FFFFFF" stroke-width="7" stroke-linecap="round"/>
  <line x1="208" y1="175" x2="304" y2="175" stroke="#FFFFFF" stroke-width="7" stroke-linecap="round"/>
  <path d="M256,315 Q256,365 185,340" fill="none" stroke="#FFFFFF" stroke-width="7" stroke-linecap="round"/>
  <path d="M256,315 Q256,365 327,340" fill="none" stroke="#FFFFFF" stroke-width="7" stroke-linecap="round"/>
  <circle cx="185" cy="340" r="5" fill="#FFFFFF"/>
  <circle cx="327" cy="340" r="5" fill="#FFFFFF"/>
  <path d="M95,378 Q150,362 205,378 Q256,392 307,378 Q362,362 417,378" fill="none" stroke="#FFFFFF" stroke-width="4" stroke-linecap="round" opacity="0.45"/>
  <path d="M110,396 Q160,382 210,396 Q256,408 302,396 Q352,382 402,396" fill="none" stroke="#FFFFFF" stroke-width="2.5" stroke-linecap="round" opacity="0.22"/>
  <text x="256" y="444" text-anchor="middle" font-family="'Helvetica Neue',Arial,sans-serif" font-weight="500" font-size="46" letter-spacing="10" fill="#FFFFFF" opacity="0.7">PORTUS</text>
</svg>
